<svg width="128" height="128" xmlns="http://www.w3.org/2000/svg"><path d="M36 13.333c12.518 0 22.667 10.149 22.667 22.667v22.667H36c-12.518 0-22.667-10.149-22.667-22.667 0-12.518 10.149-22.667 22.667-22.667zm0 56h22.667V92c0 12.518-10.149 22.667-22.667 22.667-12.518 0-22.667-10.149-22.667-22.667 0-12.518 10.149-22.667 22.667-22.667zm56-56c12.518 0 22.667 10.149 22.667 22.667 0 12.518-10.149 22.667-22.667 22.667H69.333V36c0-12.518 10.149-22.667 22.667-22.667zm-22.667 56H92c12.518 0 22.667 10.149 22.667 22.667 0 12.518-10.149 22.667-22.667 22.667-12.518 0-22.667-10.149-22.667-22.667V69.333z"/></svg>