<svg width="128" height="128" xmlns="http://www.w3.org/2000/svg"><path d="M36 13.333c12.518 0 22.667 10.149 22.667 22.667v22.667H36c-12.518 0-22.667-10.149-22.667-22.667 0-12.518 10.149-22.667 22.667-22.667zM48 48V36c0-6.627-5.373-12-12-12s-12 5.373-12 12 5.373 12 12 12h12zM36 69.333h22.667V92c0 12.518-10.149 22.667-22.667 22.667-12.518 0-22.667-10.149-22.667-22.667 0-12.518 10.149-22.667 22.667-22.667zM36 80c-6.627 0-12 5.373-12 12s5.373 12 12 12 12-5.373 12-12V80H36zm56-66.667c12.518 0 22.667 10.149 22.667 22.667 0 12.518-10.149 22.667-22.667 22.667H69.333V36c0-12.518 10.149-22.667 22.667-22.667zM92 48c6.627 0 12-5.373 12-12s-5.373-12-12-12-12 5.373-12 12v12h12zM69.333 69.333H92c12.518 0 22.667 10.149 22.667 22.667 0 12.518-10.149 22.667-22.667 22.667-12.518 0-22.667-10.149-22.667-22.667V69.333zM80 80v12c0 6.627 5.373 12 12 12s12-5.373 12-12-5.373-12-12-12H80z"/></svg>