<svg width="128" height="128" xmlns="http://www.w3.org/2000/svg"><path d="M126.618 33.926c.03-.5-.044-1.014-.265-1.514l-10.574-24.25-.058-.118a9.206 9.206 0 00-8.074-4.838l-88.28-.147a9.213 9.213 0 00-8.102 4.809l-.06.117L.456 32.412a3.178 3.178 0 00-.205 1.94 8.368 8.368 0 00-.088 1.222L0 114.632c-.015 2.456.941 4.765 2.676 6.515 1.75 1.735 4.06 2.706 6.515 2.706l108.25.147c5.074 0 9.191-4.118 9.191-9.176l.162-79.06a9.39 9.39 0 00-.176-1.838zM17.015 10.853a2.721 2.721 0 012.353-1.338l88.28.147c.955 0 1.852.514 2.337 1.338l6.78 15.544-106.589-.147 6.839-15.544zm33.014 22.059l26.765.03v42l-10.662-9.957c-1.5-1.397-3.94-1.397-5.44 0l-10.663 9.956v-42.03zm70.147 81.897c0 1.5-1.235 2.72-2.735 2.72l-108.235-.147a2.73 2.73 0 01-1.927-.808 2.724 2.724 0 01-.794-1.942l.162-79.058c0-1.5 1.235-2.721 2.735-2.721l34.177.044v48.059c0 1.47.897 2.809 2.28 3.412a4.011 4.011 0 004.337-.72l13.236-12.354 13.235 12.353a3.995 3.995 0 002.706 1.059 4.27 4.27 0 001.632-.338c1.383-.603 2.28-1.942 2.28-3.412v-48l34.353.044c.72 0 1.411.294 1.926.809.515.515.794 1.206.794 1.941l-.162 79.059z"/></svg>