<svg width="128" height="128" xmlns="http://www.w3.org/2000/svg"><path d="M50.28 127.406c-12.403 0-24.662-4.76-34.037-14.134C7.157 104.186 2.11 92.071 2.11 79.235c0-12.836 5.048-24.951 14.134-34.037 9.087-9.086 22.932-15.577 36.778-17.163 15.288-1.73 28.556 2.163 37.498 10.961 19.182 19.182 12.404 55.671-6.201 74.276-9.375 9.375-21.634 14.134-34.037 14.134zm9.952-94.179c-2.163 0-4.182.144-6.49.433-12.692 1.442-25.095 7.355-33.46 15.576-8.077 8.077-12.404 18.75-12.404 29.999 0 11.25 4.471 21.922 12.404 29.999 16.586 16.586 43.412 16.586 59.997 0 16.442-16.442 22.788-49.614 6.202-66.2-6.346-6.346-15.576-9.807-26.249-9.807zM94.27 48.515c-.72 0-1.442-.289-2.019-.865-1.154-1.154-1.154-2.885 0-4.039l15.432-15.432c1.154-1.154 2.885-1.154 4.039 0 .865.866 2.019 1.298 3.028 1.298 2.452 0 4.471-2.019 4.471-4.47 0-2.453-2.019-4.472-4.47-4.472h-.578c-.432 0-.72.144-1.01.144-1.009 0-2.018-.576-2.595-1.442-.577-.865-.433-2.019.144-2.884.721-1.154 1.154-2.452 1.154-3.75 0-3.606-3.029-6.635-6.635-6.635-3.605 0-6.634 3.03-6.634 6.635 0 2.019.865 3.894 2.452 5.048.577.577 1.01 1.298 1.01 2.019 0 .865-.289 1.586-.866 2.163l-15.576 15.72c-1.154 1.155-2.885 1.155-4.039 0-1.153-1.153-1.153-2.884 0-4.038l13.558-13.7c-1.587-2.02-2.308-4.616-2.308-7.356C92.827 5.68 98.452.055 105.23.055c6.779 0 12.404 5.625 12.404 12.404 0 .865-.144 1.73-.289 2.596 4.327 1.153 7.644 5.192 7.644 9.951 0 5.625-4.615 10.24-10.24 10.24-1.586 0-3.317-.432-4.76-1.298L96.29 47.65c-.577.576-1.299.865-2.02.865zM82.587 86.302a2.885 2.885 0 105.77 0 2.885 2.885 0 00-5.77 0zM68.02 108.224a2.893 2.893 0 01-2.884-2.884 2.893 2.893 0 012.884-2.885 2.893 2.893 0 012.885 2.885 2.893 2.893 0 01-2.885 2.884zm.02-4.327v1.443-1.443zM66.578 90.63a2.893 2.893 0 01-2.884-2.885 2.893 2.893 0 012.884-2.884 2.893 2.893 0 012.885 2.884 2.893 2.893 0 01-2.885 2.885zm.02-4.327v1.442-1.442z"/></svg>