<svg width="128" height="128" xmlns="http://www.w3.org/2000/svg"><path d="M85.637 37.014a3.266 3.266 0 00-2.357-1.004c-.927 0-1.762.386-2.358 1.004h-.003L65.302 52.63 49.82 37.147l-.115-.114-.018-.02h-.002a3.263 3.263 0 00-4.475 0 3.266 3.266 0 00-.046 4.741l11.941 11.95h-6.912a3.278 3.278 0 100 6.556h11.832v9.845H50.192a3.279 3.279 0 000 6.556h11.832v15.834a3.278 3.278 0 006.556 0V76.66h11.832a3.278 3.278 0 100-6.556H68.58v-9.83-.014h11.832a3.278 3.278 0 100-6.556H73.5L85.63 41.57c.572-.59.927-1.394.927-2.282 0-.884-.352-1.684-.92-2.274zm35.995 44.327a7.606 7.606 0 011.967-7.399 13.63 13.63 0 004.028-9.669 13.63 13.63 0 00-4.028-9.668 7.63 7.63 0 01-1.108-1.398 7.606 7.606 0 011.086-9.354 13.642 13.642 0 003.988-9.684c-.006-3.195-1.65-15.134-12.072-15.134H12.167C1.745 19.035.1 30.974.095 34.17a13.643 13.643 0 003.988 9.684 7.596 7.596 0 012.216 5.38 7.564 7.564 0 01-1.13 3.974 7.624 7.624 0 01-1.108 1.398c-.22.22-.434.448-.639.683a13.63 13.63 0 00-3.388 8.986 13.63 13.63 0 004.027 9.668c.422.42.794.89 1.108 1.398a7.605 7.605 0 01-1.086 9.354A13.642 13.642 0 00.095 94.38c.006 3.195 1.65 15.133 12.072 15.133H115.494c10.421 0 12.065-11.938 12.072-15.133a13.641 13.641 0 00-3.989-9.685 7.592 7.592 0 01-1.945-3.353zm-6.71 21.526H12.774c-1.414 0-5.988-.92-5.988-8.5a7.582 7.582 0 012.216-5.38c.254-.256.498-.522.731-.796a13.628 13.628 0 003.258-8.89 13.637 13.637 0 00-4.028-9.668 7.577 7.577 0 01-2.237-5.36 7.577 7.577 0 012.237-5.358 13.636 13.636 0 004.028-9.669 13.628 13.628 0 00-3.988-9.685 7.582 7.582 0 01-2.217-5.38c0-7.581 4.574-8.496 5.988-8.496h102.15c1.414 0 5.988.915 5.988 8.496a7.583 7.583 0 01-2.216 5.38 13.628 13.628 0 00-3.988 9.685 13.636 13.636 0 004.027 9.669 7.577 7.577 0 012.237 5.359 7.577 7.577 0 01-2.237 5.359 13.636 13.636 0 00-4.028 9.669c-.001.778.063 1.54.187 2.284a13.628 13.628 0 003.802 7.4 7.583 7.583 0 012.216 5.38c0 7.582-4.574 8.501-5.988 8.501z"/></svg>