<svg width="128" height="128" xmlns="http://www.w3.org/2000/svg"><path d="M127.429 48.1c0-6.771-5.515-12.286-12.286-12.286h-7.857L83.143 11.671c-3.386-3.385-8.9-3.385-12.286 0-3.386 3.386-3.386 8.9 0 12.286l11.857 11.857h-38l11.857-11.857c3.386-3.386 3.386-8.9 0-12.286-3.385-3.385-8.9-3.385-12.285 0L20.143 35.814h-7.857C5.514 35.814 0 41.33 0 48.1c0 6.343 4.814 11.571 10.986 12.229l4.643 40.728a19.23 19.23 0 006.271 12.3 19.215 19.215 0 0012.9 4.957h57.614a19.242 19.242 0 0019.157-17.171l4.858-40.814c6.171-.658 11-5.886 11-12.229zM105.9 100.471v.029a13.546 13.546 0 01-13.486 12.1H34.8a13.521 13.521 0 01-13.486-12.157L16.757 60.4h93.914l-4.771 40.071zm9.243-45.8H12.286c-3.629 0-6.572-2.957-6.572-6.571s2.957-6.571 6.572-6.571h10.228L48.33 15.714a2.975 2.975 0 014.2 0 2.975 2.975 0 010 4.2l-21.615 21.6h65.6L74.9 19.9a2.975 2.975 0 010-4.2 2.975 2.975 0 014.2 0l25.814 25.814h10.229c3.628 0 6.571 2.957 6.571 6.572 0 3.614-2.957 6.585-6.571 6.585zm-86.647 13.71l5.675-.667 4.186 35.567-5.675.668-4.186-35.567zm60.563 34.9l4.186-35.566 5.675.668-4.187 35.567-5.674-.668zM60.857 68.044h5.714v34.543h-5.714V68.043z"/></svg>