<svg width="128" height="128" xmlns="http://www.w3.org/2000/svg"><g><path d="M87.149 126.334H39.88a5.006 5.006 0 01-4.993-4.746L24.07 30.675v-.2c0-2.757 2.243-5 5-5h68.888c2.757 0 5 2.243 5 5v.2l-.023.2-10.794 90.713a5.007 5.007 0 01-4.993 4.746zm-45.696-6.757h44.124l10.392-87.345H31.06l10.393 87.345z"/><path d="M68.671 24.52a3.378 3.378 0 01-3.212-4.428L72.01.024 91.813 5.33a3.378 3.378 0 11-1.749 6.526L76.446 8.207l-4.563 13.982a3.38 3.38 0 01-3.212 2.331zM63.515 97.48c-12.014 0-21.789-9.774-21.789-21.789 0-12.014 9.775-21.788 21.789-21.788 12.014 0 21.789 9.774 21.789 21.788 0 12.015-9.775 21.789-21.789 21.789zm0-36.82c-8.289 0-15.032 6.743-15.032 15.031 0 8.289 6.743 15.032 15.032 15.032s15.032-6.743 15.032-15.032c0-8.288-6.743-15.031-15.032-15.031zm-34.782-15.98a3.379 3.379 0 01-3.35-2.98L24.07 30.676v-.2c0-2.757 2.243-5 5-5h68.888c2.757 0 5 2.243 5 5v.2l-1.299 10.918a3.378 3.378 0 01-6.71-.798l1.02-8.563H31.06l1.032 8.67a3.378 3.378 0 01-3.359 3.777zm58.416 81.655H39.88a5.007 5.007 0 01-4.993-4.747L33.24 107.75a3.378 3.378 0 016.71-.798l1.502 12.626h44.124l1.51-12.693a3.378 3.378 0 116.71.799l-1.655 13.904a5.007 5.007 0 01-4.993 4.747z"/></g></svg>