<svg width="128" height="128" xmlns="http://www.w3.org/2000/svg"><path d="M96.764 126.66H28.687c-6.966 0-12.665-5.699-12.665-12.665v-84.7c0-6.966 5.7-12.665 12.665-12.665h68.077c6.966 0 12.665 5.699 12.665 12.665v84.7c0 6.966-5.7 12.665-12.665 12.665zM28.687 22.962c-3.483 0-6.333 2.85-6.333 6.333v84.7c0 3.483 2.85 6.333 6.333 6.333h68.077c3.483 0 6.332-2.85 6.332-6.333v-84.7c0-3.483-2.85-6.333-6.332-6.333H28.687zM96.764 126.66H28.687c-6.966 0-12.665-5.699-12.665-12.665V41.17h93.407v72.826c0 6.966-5.7 12.665-12.665 12.665zm-74.41-79.158v66.493c0 3.483 2.85 6.333 6.333 6.333h68.077c3.483 0 6.332-2.85 6.332-6.333V47.502H22.354zM90.035 22.17H36.207c-4.354 0-7.916-3.562-7.916-7.916V7.922c0-4.354 3.562-7.916 7.916-7.916h53.828c4.354 0 7.916 3.562 7.916 7.916v6.333c0 4.354-3.562 7.916-7.916 7.916zM36.207 6.339c-.87 0-1.583.712-1.583 1.583v6.333c0 .87.712 1.583 1.583 1.583h53.828c.871 0 1.583-.712 1.583-1.583V7.922c0-.87-.712-1.583-1.583-1.583H36.207zm42.35 80.742H46.894a3.176 3.176 0 01-3.167-3.166 3.176 3.176 0 013.167-3.167h31.663a3.176 3.176 0 013.167 3.167 3.176 3.176 0 01-3.167 3.166zm-15.832 15.832a3.176 3.176 0 01-3.166-3.167V68.083a3.176 3.176 0 013.166-3.166 3.176 3.176 0 013.167 3.166v31.663a3.176 3.176 0 01-3.167 3.167z"/></svg>