<svg width="128" height="128" xmlns="http://www.w3.org/2000/svg"><g><path d="M116.528 24.592V14.065C116.52 6.3 110.228.008 102.463 0H25.106C17.342.008 11.05 6.3 11.042 14.065v98.453c.007 7.764 6.3 14.057 14.064 14.064h77.357c7.765-.007 14.057-6.3 14.065-14.064V24.596v-.004zM25.106 7.032h77.357a7.042 7.042 0 017.033 7.034v8.228L73.482 37.73a24.76 24.76 0 01-19.393 0L18.075 22.296v-8.228a7.042 7.042 0 017.031-7.035zm77.357 112.517H25.106a7.042 7.042 0 01-7.033-7.033V29.944L51.32 44.192a31.763 31.763 0 0024.93 0l33.245-14.248v82.574a7.042 7.042 0 01-7.032 7.031z"/><path d="M77.019 58.72l-13.234 9.924L50.55 58.72a3.515 3.515 0 00-4.217 5.624l13.934 10.45v.868h-8.762a3.516 3.516 0 000 7.033h8.76v5.24h-8.76a3.516 3.516 0 000 7.033h8.76v8.76a3.516 3.516 0 107.033 0v-8.76h8.764a3.516 3.516 0 100-7.033h-8.76v-5.24h8.76a3.516 3.516 0 000-7.033h-8.76v-.867l13.935-10.45a3.515 3.515 0 00-4.216-5.625h-.003z"/></g></svg>