<svg width="128" height="128" xmlns="http://www.w3.org/2000/svg"><path d="M64 122.667c22.091 0 40-17.909 40-40 0-4.619-1.227-9.051-2.667-13.174-8.89 8.784-15.642 13.174-20.266 13.174 21.306-37.334 9.6-53.334-22.4-74.667 2.666 26.667-14.912 38.795-22.07 45.53A40 40 0 0064 122.668zm3.787-94.747c17.285 14.667 17.37 26.064 4.016 49.461-4.059 7.11 1.077 15.952 9.264 15.952 3.669 0 7.381-1.066 11.301-3.173a29.333 29.333 0 11-48.464-28.864c.672-.63 4.08-3.653 4.23-3.787 2.26-2.026 4.122-3.824 5.962-5.792 6.56-7.029 11.275-14.826 13.685-23.797h.006z"/></svg>