<svg width="128" height="128" xmlns="http://www.w3.org/2000/svg"><path d="M122.167 65.745l.143 1.965c.028.303.033.567.028.777l.038 1.387c.012.498-.066.994-.23 1.464-.056 4.58-.562 8.715-1.537 12.343l-.16.595c-.688 2.588-1.095 3.914-1.728 5.45-.782 1.9-1.349 3.221-1.96 4.526-1.657 3.562-3.865 6.937-6.69 10.449a45.133 45.133 0 01-1.596 1.888l-.886 1.008-1.046 1.062c-.336.391-.633.694-1.101 1.123l-.259.248-.066.055-.072.077a3.837 3.837 0 01-.54.496l-1.766 1.596c-.417.32-.829.646-1.234.98l-.181.149a36.886 36.886 0 01-2.24 1.75 62.2 62.2 0 01-14.414 7.675c-2.962 1.118-6.21 2.004-9.987 2.775a36.446 36.446 0 01-3.303.49c-1.085.126-1.48.176-2.35.297l-3.029.21c-.768.025-1.537.044-2.306.054H62.56l-1.293-.055h-.457c-.732.006-1.085 0-1.3-.044l-1.745-.12-.369-.056a31.17 31.17 0 00-.99-.088 21.416 21.416 0 01-2.324-.28 21.1 21.1 0 00-.732-.127l-.485-.072a24.741 24.741 0 01-2.147-.38l-1.007-.237c-3.292-.77-5.164-1.277-7.135-2.003a62.745 62.745 0 01-14.876-7.686 48.562 48.562 0 01-2.147-1.646l-.27-.21c-.55-.44-.875-.687-1.486-1.166l-1.652-1.487-.847-.787-.21-.193-.06-.055c-.361-.313-.701-.65-1.019-1.007l-1.172-1.212c-.282-.326-.568-.65-.86-.969l-.153-.17c-.716-.793-1.101-1.228-1.553-1.79a68.377 68.377 0 01-3.622-5.02 29.91 29.91 0 01-1.074-1.768l-.077-.126c-.218-.376-.438-.75-.66-1.123L10 95.138l-.865-1.734a59.739 59.739 0 01-1.134-2.62l-.204-.496c-.737-1.767-1.227-3.38-1.987-6.276l-.413-1.564c-.13-.541-.235-1.089-.314-1.64-.045-.314-.1-.626-.165-.936-.528-2.505-.721-5.07-.749-8.77a4.134 4.134 0 01-.16-1.173c.094-9.47 2.412-18.13 6.552-24.686a42.798 42.798 0 012.665-3.656c.275-.346.495-.583.925-1.018l.044-.05.297-.308a15.873 15.873 0 012.45-2.323l.336-.287.038-.033c.364-.313.573-.49.86-.699 2.19-1.613 3.842-2.642 5.813-3.457l.77-.33a26.26 26.26 0 011.481-.606c1.267-.474 2.571-.837 4.416-1.277.677-.16 1.211-.248 2.273-.402.623-.088.837-.121 1.46-.22l.77-.055c.496-.078.826-.094 1.476-.11a9.04 9.04 0 00.88-.056l.54-.01a14.271 14.271 0 013.854.187c4.371.875 8.643 2.147 12.662 3.787a266.187 266.187 0 018.638 3.452l.44-.187c9.013-3.854 13.252-5.445 19.198-6.827a12.772 12.772 0 011.927-.297c.462-.05.622-.066.809-.1l.7-.049 1.265.017 1.019.016 1.9.149c.192.028.368.05.847.083.76.06 1.145.104 1.696.203l.506.094c2.626.495 4.058.837 5.67 1.431l.799.287c1.602.594 2.532.99 3.545 1.541a43.23 43.23 0 014.118 2.55c4.774 3.407 8.545 8.472 11.11 14.533.402.953.716 1.834 1.167 3.232l.336 1.046c.325 1.024.54 1.905.898 3.567.148.694.22 1.002.341 1.597l.286 1.745c.121.606.165 1.046.231 1.927.039.567.061.782.15 1.415zM113.893 70a4.13 4.13 0 01.192-1.267v-.264l-.01-.121-.094-1.597c-.101-.603-.167-1.211-.199-1.822a8.544 8.544 0 00-.12-1.068l-.26-1.618-.313-1.437a31.177 31.177 0 00-.694-2.808l-.325-1.008a30.643 30.643 0 00-.914-2.56c-2.004-4.734-4.86-8.571-8.274-11.01a33.952 33.952 0 00-3.309-2.037 17.59 17.59 0 00-2.455-1.046l-.777-.287c-1.046-.385-2.158-.644-4.36-1.062l-.484-.088a8.511 8.511 0 00-.826-.088 9.656 9.656 0 01-1.118-.116l-1.321-.1-.782-.01-.947-.011c-.296.038-.594.07-.892.099-.495.05-.682.077-.853.116-5.368 1.25-9.276 2.714-17.865 6.386l-.022.01-2.042.876a4.129 4.129 0 01-3.249-.005 259.028 259.028 0 00-10.025-4.052 62.123 62.123 0 00-11.209-3.359 6.518 6.518 0 00-1.789-.06l-.358-.011c-.453.058-.909.087-1.365.088-.225.004-.45.022-.672.055l-.71.044c-.385.066-.639.11-1.349.21-.826.115-1.195.181-1.541.258a30.004 30.004 0 00-3.441.98c-.287.11-.567.226-1.085.451l-.88.375c-1.223.506-2.379 1.228-4.086 2.483l-.335.28-.039.034c-.33.291-.518.445-.743.616a7.3 7.3 0 00-1.211 1.167c-.193.215-.353.38-.628.66l-.044.056a7.234 7.234 0 00-.435.462 31.2 31.2 0 00-2.109 2.896c-3.116 4.928-5.01 11.688-5.235 19.264.087.338.132.685.132 1.035 0 3.776.143 6.133.567 8.153.094.418.143.7.248 1.36.082.523.126.743.165.892l.396 1.525c.666 2.543 1.074 3.876 1.624 5.202l.21.496c.462 1.134.704 1.69.936 2.19l.787 1.575.66 1.3c.199.314.364.594.634 1.062l.077.132c.396.689.583.997.803 1.338 1.063 1.608 2.12 3.083 3.183 4.405.313.39.622.743 1.238 1.43l.16.166c.451.507.71.798.815.936l1.161 1.2c.077.088.204.21.529.507l.055.055.259.236.781.727 1.333 1.211c.407.309.77.595 1.376 1.074l.264.21c.854.676 1.305 1.029 1.784 1.37a54.503 54.503 0 0012.927 6.661c1.596.595 3.22 1.035 6.199 1.735l.99.23c.353.078.7.138 1.487.254l.529.083c.385.055.704.11 1.002.165.346.066.688.104 1.508.17.573.056.864.078 1.228.122.314.033.314.033.292.044l1.706.12h.93c.414 0 .788.028.64.045l.71.005h1.029l1.932-.038 2.538-.165c.661-.105 1.112-.166 2.296-.303 1.343-.16 1.96-.242 2.626-.386 3.386-.682 6.221-1.458 8.737-2.405a54.002 54.002 0 0012.525-6.673c.484-.347.914-.683 1.795-1.404l.181-.154c.65-.528 1.024-.831 1.184-.936l1.778-1.596c-.088.066-.099.082-.044.022l.342-.33.275-.26a6.95 6.95 0 00.627-.638l1.063-1.08.776-.891c.7-.798.997-1.145 1.349-1.591 2.455-3.056 4.305-5.89 5.66-8.792.55-1.173 1.073-2.384 1.805-4.173.457-1.101.788-2.191 1.388-4.443l.165-.595c.859-3.22 1.283-7.102 1.255-11.544h-.005zM90.72.01a4.129 4.129 0 110 8.258A17.892 17.892 0 0072.828 26.16a4.129 4.129 0 11-8.258 0A26.15 26.15 0 0190.72.011zM41.172 24.785c-11.11 0-20.645-4.768-20.645-12.387C20.527 4.778 30.062.01 41.172.01s20.645 4.767 20.645 12.387-9.535 12.387-20.645 12.387zm0-8.258c3.826 0 7.36-.749 9.833-1.982 1.822-.914 2.554-1.778 2.554-2.147 0-.369-.732-1.233-2.554-2.147-2.478-1.233-6.001-1.982-9.833-1.982-3.826 0-7.36.749-9.833 1.982-1.822.914-2.554 1.778-2.554 2.147 0 .369.732 1.233 2.554 2.147 2.478 1.233 6.001 1.982 9.833 1.982z"/></svg>