<svg width="128" height="128" xmlns="http://www.w3.org/2000/svg"><path d="M46.425 84.724h34.508c2.945 0 5.891-2.384 5.891-5.891V72.94c0-2.945-2.385-5.891-5.891-5.891H46.425c-2.946 0-5.891 2.385-5.891 5.891v5.892c0 3.647 2.384 5.891 5.891 5.891zm0-11.081h34.508v5.891H46.425v-5.891zm74.205-40.259h-11.082l-4.067-12.905c-1.824-5.892-7.575-9.96-14.028-8.136l-17.534 4.63L51.054 3.505C45.163.56 38.15 2.384 35.344 7.574l-14.589 25.81H6.026c-2.945 0-5.891 2.385-5.891 5.892v11.642c0 2.946 2.384 5.892 5.891 5.892h5.892v62.562c0 2.946 2.384 5.892 5.891 5.892h91.178c2.946 0 5.892-2.385 5.892-5.892V56.25h5.751c2.946 0 5.892-2.385 5.892-5.892V38.715c-.561-2.385-2.946-5.33-5.892-5.33zm-27.494-15.15c2.946-.56 6.453 1.123 7.014 4.068l2.946 11.643h-.561l-7.575-4.068h1.122l-1.683-5.33-5.33 1.823v1.123l-7.014-4.068V21.04l11.081-2.805zm-1.683 15.15H53.44l9.398-16.412 28.616 16.412zM39.973 10.52c1.823-2.945 5.19-3.506 7.574-2.384l9.96 5.891-10.52 19.358h-19.92L39.973 10.52zm69.014 108.713H17.81V56.108h91.178v63.124zm11.643-68.875H6.026V38.715H119.93v11.642h.701zM44.602 26.37l-5.33-2.945-2.806 4.629 4.629 2.945 3.507-4.629zm5.33-9.959l-4.629-2.946-2.946 4.63 4.63 2.945 2.945-4.629z"/></svg>