<svg width="128" height="128" xmlns="http://www.w3.org/2000/svg"><path d="M25.835 51.249c.612.612 1.225 1.225 2.143 1.225.613 0 .92 0 1.532-.306 1.224-.613 1.53-2.45.918-3.675 0 0-7.962-12.555-1.225-21.13 3.675-4.899 4.287-10.717 1.838-17.148-1.838-4.593-4.594-7.961-4.594-8.268-.918-1.225-2.45-1.225-3.674-.306-.919.919-1.225 2.45-.307 3.675 0 0 8.88 11.024 2.45 18.985-8.88 11.024.613 26.335.919 26.948zm73.493-.919c.612.613 1.225 1.225 2.143 1.225.613 0 .919 0 1.531-.306 1.225-.613 1.532-2.45.92-3.675 0 0-7.963-12.555-1.226-21.129 3.675-4.593 4.287-10.718 1.838-17.148-1.838-4.594-4.594-7.962-4.594-8.268-.918-1.225-2.45-1.225-3.674-.306-1.225.918-1.225 2.45-.307 3.674 0 0 8.88 11.024 2.45 18.986-9.187 11.33.306 26.335.919 26.947zm17.148 0c.613.613 1.225 1.225 2.144 1.225.612 0 .918 0 1.53-.306 1.226-.613 1.532-2.45.92-3.675 0 0-7.962-12.555-1.226-21.129 3.675-4.593 4.288-10.718 1.838-17.148-1.838-4.594-4.594-7.962-4.594-8.268-.918-1.225-2.45-1.225-3.674-.306-1.225.918-1.225 2.45-.306 3.674 0 0 8.88 11.024 2.45 18.986-9.187 11.33.306 26.335.918 26.947zm-107.79.919c.613.612 1.226 1.225 2.144 1.225.613 0 .919 0 1.531-.306 1.225-.613 1.531-2.45.613-3.675 0 0-7.962-12.555-1.225-21.13 3.98-4.899 4.593-10.717 2.143-17.454C12.055 5.316 9.3 1.947 9.3 1.947 8.38.722 6.849.722 5.624 1.335 4.4 2.254 4.4 4.09 5.318 5.01c0 0 8.88 11.024 2.45 18.985-8.88 11.33.612 26.335.919 27.254zm114.527 53.894c-1.837-2.45-4.593-3.674-7.35-3.98-.306-25.723-18.985-46.852-43.176-51.14 1.837-2.143 3.062-4.899 3.062-7.96 0-6.738-5.512-11.943-11.943-11.943-6.737 0-11.942 5.512-11.942 11.942 0 3.062 1.225 5.818 3.062 7.962-24.498 3.98-43.483 25.416-44.096 51.139-2.756.306-4.9 1.53-6.737 3.674-1.837 2.45-3.062 5.512-3.062 8.88 0 3.37.919 6.431 3.062 8.881 2.144 2.45 4.9 3.98 7.962 3.98h103.196c3.063 0 5.818-1.53 7.962-3.98 1.837-2.45 3.062-5.512 3.062-8.88 0-3.062-1.225-6.125-3.062-8.574zM63.806 35.938c3.369 0 5.818 2.756 5.818 5.818 0 3.368-2.756 5.818-5.818 5.818-3.368 0-5.818-2.756-5.818-5.818s2.45-5.818 5.818-5.818zm54.507 82.68c-.612.612-1.53 1.53-3.062 1.53l-103.502-.306c-1.531 0-2.756-.919-3.062-1.837-.92-1.225-1.531-3.062-1.531-4.9 0-1.837.612-3.674 1.53-4.9.613-.612 1.532-1.53 3.063-1.53l67.674.306c1.838 0 3.063-1.225 3.063-3.062 0-1.838-1.225-3.063-3.063-3.063l-62.468-.306c.306-25.11 21.129-45.627 46.239-45.627h.306c25.416 0 45.933 20.517 45.933 45.933h-9.8c-1.836 0-3.061 1.225-3.061 3.063 0 1.837 1.225 3.062 3.062 3.062h15.311c1.531 0 2.756.918 3.062 1.837.919 1.225 1.531 3.062 1.531 4.9.306 1.837-.306 3.674-1.225 4.9z"/></svg>