<svg width="128" height="128" xmlns="http://www.w3.org/2000/svg"><path d="M64.142 106.7c-17.659.957-33.195-9.674-39.968-24.167-7.443-15.926-6.039-31.65 4.588-45.683 10.13-13.378 24.212-18.693 40.89-16.701 8.277.989 15.575 4.387 21.938 9.788 3.452 2.931 3.375 4.241-.452 6.438-3.326 1.91-6.668 3.788-9.976 5.728-9.147 5.358-18.35 10.623-27.39 16.158-4.84 2.962-5.809 7.688-3.103 12.591 2.927 5.303 8.602 6.537 14.615 3.061 17.866-10.332 35.672-20.766 53.594-31 2.965-1.694 3.291-3.417 1.973-6.286-4.636-10.095-11.463-18.388-20.613-24.59C80.022-1.672 58.451-3.868 36.361 6.545 14.324 16.933 2.354 35.174.364 59.216c-1.65 19.93 5.934 36.804 20.32 50.69 20.057 19.362 53.577 22.408 76.615 6.843 6-4.051 6-4.051 2.28-10.24-4.022-6.689-8.012-7.932-14.994-4.585-6.606 3.166-13.454 5.223-20.443 4.775zm60.642-28.323c-.332-4.788-2.928-8.677-5.169-12.686-.731-1.31-1.905-.806-2.952-.209-4.107 2.351-8.2 4.722-12.338 7.016-1.759.975-2.07 2.156-1.053 3.87 2.357 3.972 4.696 7.955 6.955 11.982.982 1.749 2.16 2.15 3.854 1.078 2.474-1.564 5.029-3.014 7.417-4.698 2.125-1.5 3.373-3.608 3.286-6.353z"/></svg>