<svg width="128" height="128" xmlns="http://www.w3.org/2000/svg"><path d="M63.538 68.23c-9.092 0-17.646-3.538-24.076-9.968-6.431-6.431-9.97-14.985-9.97-24.077 0-9.093 3.539-17.647 9.97-24.077 6.43-6.431 14.984-9.97 24.076-9.97 9.093 0 17.647 3.539 24.077 9.97 6.431 6.43 9.97 14.984 9.97 24.077 0 9.092-3.539 17.646-9.97 24.077-6.43 6.43-14.984 9.969-24.077 9.969zm0-60.415C49 7.815 37.185 19.646 37.185 34.17S49 60.54 63.538 60.54c14.539 0 26.354-11.831 26.354-26.354S78.077 7.815 63.538 7.815zm59.6 119.816a3.848 3.848 0 01-3.846-3.846c0-17.785-8.2-34.093-22.477-44.739a3.836 3.836 0 01-.784-5.384 3.836 3.836 0 015.384-.785c7.77 5.785 14.2 13.385 18.6 21.97 4.631 9.015 6.97 18.738 6.97 28.938a3.848 3.848 0 01-3.847 3.846zm-119.2.2a3.848 3.848 0 01-3.846-3.846c0-8.57 1.677-16.877 4.985-24.693a63.318 63.318 0 0113.6-20.169 63.318 63.318 0 0120.17-13.6c7.83-3.308 16.138-4.985 24.691-4.985a3.848 3.848 0 013.847 3.847 3.848 3.848 0 01-3.847 3.846c-30.738 0-55.753 25.015-55.753 55.754a3.848 3.848 0 01-3.847 3.846z"/></svg>