<svg width="128" height="128" xmlns="http://www.w3.org/2000/svg"><path d="M125.83 11.725a10.558 10.558 0 00-10.568-10.569H78.538a10.558 10.558 0 00-10.569 10.569v36.723a10.558 10.558 0 0010.569 10.569h36.724a10.558 10.558 0 0010.568-10.569V11.725zm-8.66 36.723a1.898 1.898 0 01-1.908 1.91H78.538a1.898 1.898 0 01-1.91-1.91V11.725c0-1.063.847-1.91 1.91-1.91h36.724c1.062 0 1.909.847 1.909 1.91v36.723zM57.933 77.261a10.558 10.558 0 00-10.568-10.569H10.64A10.558 10.558 0 00.072 77.261v36.723a10.558 10.558 0 0010.568 10.569h36.724a10.558 10.558 0 0010.568-10.569V77.261zm-8.659 36.723a1.898 1.898 0 01-1.909 1.91H10.64a1.898 1.898 0 01-1.909-1.91V77.261c0-1.063.846-1.91 1.91-1.91h36.723c1.063 0 1.909.847 1.909 1.91v36.723zM96.9 67.676c-15.961 0-28.93 12.97-28.93 28.93 0 15.961 12.969 28.93 28.93 28.93 15.96 0 28.93-12.969 28.93-28.93 0-15.96-12.97-28.93-28.93-28.93zm0 49.201c-11.179 0-20.271-9.092-20.271-20.27 0-11.179 9.092-20.271 20.27-20.271 11.18 0 20.272 9.092 20.272 20.27 0 11.18-9.093 20.271-20.271 20.271zM29.002 1.157c-15.96 0-28.93 12.969-28.93 28.93 0 15.96 12.97 28.93 28.93 28.93 15.961 0 28.93-12.97 28.93-28.93 0-15.961-12.969-28.93-28.93-28.93zm0 49.2c-11.178 0-20.27-9.092-20.27-20.27 0-11.18 9.092-20.271 20.27-20.271 11.179 0 20.271 9.092 20.271 20.27 0 11.179-9.092 20.271-20.27 20.271z"/></svg>