<?xml version="1.0" standalone="no"?><!DOCTYPE svg PUBLIC "-//W3C//DTD SVG 1.1//EN" "http://www.w3.org/Graphics/SVG/1.1/DTD/svg11.dtd"><svg class="icon" width="80px" height="80.00px" viewBox="0 0 1024 1024" version="1.1" xmlns="http://www.w3.org/2000/svg"><path fill="#fbbd08" d="M848.12521739 439.43652174H785.39130435A264.86608696 264.86608696 0 0 0 520.93217391 189.9826087a270.48 270.48 0 0 0-32.34782608 1.94086956l-11.67652174-142.95652174H305.81913043v41.73913044H438.43478261l8.94260869 109.56521739a265.21043478 265.21043478 0 0 0-190.89391304 239.16521739h-73.58608696v41.73913043H258.43478261l40.95652174 424.93565218a57.08869565 57.08869565 0 0 0 57.01565217 55.90956522H685.42608696a57.08869565 57.08869565 0 0 0 57.01565217-55.90956522l40.96695652-424.93565218h64.69565218zM520.93217391 231.72173913a223.16869565 223.16869565 0 0 1 222.63652174 207.71478261h-234.78260869l-16.81043479-205.85739131a225.92347826 225.92347826 0 0 1 28.95652174-1.8573913zM363.12695652 297.04347826a222.26086957 222.26086957 0 0 1 87.73565218-54.19826087l16.04869565 196.54956522H298.30608696A221.49913043 221.49913043 0 0 1 363.12695652 297.04347826zM700.86956522 902.99130435l-0.10434783 1.04347826v1.04347826a15.2973913 15.2973913 0 0 1-15.28695652 15.28695652H356.43826087a15.2973913 15.2973913 0 0 1-15.28695652-15.28695652v-1.04347826l-40.75826087-422.81739131h169.93043478l17.08173913 209.11304348 41.60347826-3.40173913-16.81043478-205.75304348h229.27304348z"  /><path fill="#fbbd08" d="M408.02782609 785.67304348a64.69565217 64.69565217 0 1 0 64.69565217 64.69565217 64.76869565 64.76869565 0 0 0-64.69565217-64.69565217z m0 87.65217391a22.95652174 22.95652174 0 1 1 22.95652174-22.95652174 22.95652174 22.95652174 0 0 1-22.95652174 22.95652174zM501.94086957 822.19478261a64.69565217 64.69565217 0 1 0 64.69565217-64.69565218 64.76869565 64.76869565 0 0 0-64.69565217 64.69565218z m64.69565217-22.95652174a22.95652174 22.95652174 0 1 1-22.95652174 22.95652174 22.95652174 22.95652174 0 0 1 22.95652174-22.95652174z"  /></svg>