<svg width="128" height="128" xmlns="http://www.w3.org/2000/svg"><path d="M121.962 124.113H4.83c-2.415 0-4.83-2.415-4.83-4.83s2.415-4.83 4.83-4.83h117.132c2.415 0 4.83 2.415 4.83 4.83s-2.415 4.83-4.83 4.83zm0-55.547H4.83c-2.415 0-4.83-2.415-4.83-4.83s2.415-4.83 4.83-4.83h117.132c2.415 0 4.83 2.415 4.83 4.83s-2.415 4.83-4.83 4.83zM20.528 11.811H4.83C2.415 11.811 0 9.396 0 6.981s2.415-4.83 4.83-4.83h15.698c3.623 0 4.83 2.415 4.83 4.83s-1.207 4.83-4.83 4.83zm101.434 0h-83.32c-2.416 0-4.83-2.415-4.83-4.83s2.414-4.83 4.83-4.83h82.113c2.415 0 4.83 2.415 4.83 4.83s-1.208 4.83-3.623 4.83z"/></svg>