<svg width="128" height="128" xmlns="http://www.w3.org/2000/svg"><path d="M58.475 36.5c-10.1 0-18.2-8.2-18.2-18.2 0-10.1 8.2-18.2 18.2-18.2 10.1 0 18.2 8.2 18.2 18.2.1 10-8.1 18.2-18.2 18.2zm0-32.5c-7.9 0-14.2 6.4-14.2 14.2 0 7.9 6.4 14.2 14.2 14.2 7.9 0 14.2-6.4 14.2-14.2.1-7.8-6.3-14.2-14.2-14.2zm8.3 15.2c-.6 0-1-.4-1-1 0-4-3.3-7.2-7.2-7.2-.6 0-1-.4-1-1s.4-1 1-1c5.1 0 9.2 4.1 9.2 9.2 0 .6-.5 1-1 1zm-2.9 38.2h-10.7c-1.1 0-2-.9-2-2V33.6c0-.6.3-1.3.8-1.6.5-.4 1.2-.5 1.8-.3 3.1 1.1 6.3 1.1 9.4 0 .6-.2 1.3-.1 1.8.3s.8 1 .8 1.6v21.9c.1 1.1-.8 1.9-1.9 1.9zm-8.7-4h6.7V36.2c-2.2.4-4.5.4-6.8 0v17.2h.1zm61.6 43.1h-91.5c-1.1 0-2-.9-2-2V60.4c0-3.8 3.1-6.9 6.9-6.9h81.7c3.8 0 6.9 3.1 6.9 6.9v34.1c0 1.1-.9 2-2 2zm-89.5-4h87.4V60.4c0-1.6-1.3-2.9-2.9-2.9h-81.6c-1.6 0-2.9 1.3-2.9 2.9v32.1zm27.1 11.6h-20.2c-1.1 0-2-.9-2-2v-7.6c0-1.1.9-2 2-2h20.2c1.1 0 2 .9 2 2v7.6c0 1.1-.9 2-2 2zm-18.2-4h16.2v-3.6h-16.2v3.6zm71.7 4h-20.2c-1.1 0-2-.9-2-2v-7.6c0-1.1.9-2 2-2h20.2c1.1 0 2 .9 2 2v7.6c0 1.1-.9 2-2 2zm-18.2-4h16.2v-3.6h-16.2v3.6zm14.7-27.8h-10.7c-.6 0-1-.4-1-1V65c0-.6.4-1 1-1h10.7c.6 0 1 .4 1 1v6.3c0 .5-.5 1-1 1zm-9.7-2h8.7V66h-8.7v4.3zm-15.2 56.7h-21c-1.1 0-2-.9-2-2s.9-2 2-2h20.9c2.2 0 4-1.8 4-4s-1.8-4-4-4h-62.3c-4.4 0-8-3.6-8-8V83.1c0-4.4 3.6-8 8-8h8.3c1.1 0 2 .9 2 2s-.9 2-2 2h-8.3c-2.2 0-4 1.8-4 4v23.8c0 2.2 1.8 4 4 4h62.4c4.4 0 8 3.6 8 8 0 4.5-3.6 8.1-8 8.1zm-42.3-40.8c-2.8 0-5.1-2.3-5.1-5.1s2.3-5.1 5.1-5.1 5.1 2.3 5.1 5.1-2.3 5.1-5.1 5.1zm0-8.2c-1.7 0-3.1 1.4-3.1 3.1 0 1.7 1.4 3.1 3.1 3.1 1.7 0 3.1-1.4 3.1-3.1 0-1.7-1.4-3.1-3.1-3.1zm15.2 8.2c-2.8 0-5.1-2.3-5.1-5.1s2.3-5.1 5.1-5.1 5.1 2.3 5.1 5.1-2.3 5.1-5.1 5.1zm0-8.2c-1.7 0-3.1 1.4-3.1 3.1 0 1.7 1.4 3.1 3.1 3.1 1.7 0 3.1-1.4 3.1-3.1-.1-1.7-1.4-3.1-3.1-3.1z"/></svg>