<svg width="128" height="128" xmlns="http://www.w3.org/2000/svg"><path d="M127.408 47.388c0-2.098-1.632-3.73-3.73-3.73h-2.447V43.31c-1.749-7.926-5.595-13.754-11.19-17.25-5.478-3.38-11.422-3.73-15.036-3.614C91.51 12.538 79.97 1.115 61.67 2.165c-16.551.932-25.643 12.238-29.023 19.93-6.993.234-12.821 2.565-17.25 7.11-4.08 4.08-6.41 9.442-7.81 14.454h-3.73c-2.097 0-3.73 1.631-3.73 3.73 0 26.341 16.086 49.07 39.047 58.744v15.502c0 2.914 2.215 5.362 5.012 5.362h39.397c2.797 0 5.012-2.448 5.012-5.362v-15.502c22.728-9.674 38.813-32.403 38.813-58.745zM20.525 34.451c3.614-3.614 8.276-5.245 14.337-4.896 1.632.117 3.263-1.049 3.73-2.564 0-.117 5.245-16.435 23.428-17.367 15.851-.816 25.176 10.024 26.575 17.6a4.018 4.018 0 001.631 2.448c.816.583 1.865.7 2.914.466.117 0 7.11-1.515 13.055 2.215 3.613 2.214 6.177 6.06 7.576 11.422H15.164c1.049-3.496 2.797-6.76 5.361-9.324zm60.493 85.203H46.401v-10.957c5.478 1.516 11.306 2.448 17.25 2.448 5.945 0 11.773-.816 17.25-2.448v10.957h.117zm-17.367-15.968c-29.838 0-54.315-23.312-56.18-52.684h112.477c-1.981 29.372-26.458 52.684-56.297 52.684z"/></svg>