<svg width="128" height="128" xmlns="http://www.w3.org/2000/svg"><path d="M104.198 52.12a51.88 51.88 0 01-12.475 33.82s27.908 27.946 33.153 33.083c4.31 4.217-.633 10.767-6.203 4.843-3.352-3.569-32.604-32.264-32.604-32.264-9.115 7.848-20.972 12.59-33.941 12.59-28.758 0-52.07-23.319-52.07-52.072C.057 23.367 23.37.052 52.127.052s52.07 23.315 52.07 52.068zM52.128 8.305c-24.193 0-43.813 19.62-43.813 43.811 0 24.2 19.62 43.82 43.813 43.82 24.2 0 43.82-19.62 43.82-43.82 0-24.192-19.62-43.81-43.82-43.81z"/></svg>