<svg width="128" height="128" xmlns="http://www.w3.org/2000/svg"><path d="M126.174 47.927v-7.42c0-.578-.134-1.143-.393-1.662L110.94 9.164a3.717 3.717 0 00-3.318-2.048H18.58a3.708 3.708 0 00-3.317 2.048L.423 38.844a3.683 3.683 0 00-.394 1.663v7.42c0 6.055 2.916 11.442 7.42 14.834V111H3.74a3.712 3.712 0 00-3.71 3.71 3.711 3.711 0 003.71 3.71h118.724a3.712 3.712 0 003.71-3.71 3.712 3.712 0 00-3.71-3.71h-3.71V62.76c4.505-3.39 7.42-8.77 7.42-14.833zm-48.232 11.13c-6.136 0-11.13-4.993-11.13-11.13v-3.71h22.26v3.71c0 6.137-4.994 11.13-11.13 11.13zM7.449 47.928v-3.71H29.71v3.71c0 6.137-4.994 11.13-11.13 11.13-6.137 0-11.13-4.993-11.13-11.13zm51.942-33.39v22.26H38.17l5.565-22.26h15.657zm23.077 0l5.565 22.26H66.811v-22.26h15.657zM37.13 44.216h22.261v3.71c0 6.137-4.994 11.13-11.13 11.13-6.137 0-11.13-4.993-11.13-11.13v-3.71zm59.362 0h22.261v3.71c0 6.137-4.994 11.13-11.13 11.13-6.136 0-11.13-4.993-11.13-11.13v-3.71zm19.969-7.42H95.677l-5.566-22.26h15.22l11.13 22.26zm-95.589-22.26h15.22l-5.566 22.26H9.742l11.13-22.26zm-6.002 51.57c1.202.245 2.44.371 3.71.371 6.062 0 11.457-2.923 14.84-7.435 3.384 4.512 8.779 7.435 14.84 7.435 6.063 0 11.458-2.923 14.841-7.435 2.679 3.561 6.605 6.136 11.13 7.057v44.892H14.87V66.1v.007zM111.333 111H81.652V66.107c4.526-.92 8.452-3.495 11.13-7.057 3.384 4.512 8.779 7.435 14.84 7.435 1.27 0 2.509-.126 3.711-.37v44.892V111zm-14.84-25.971a3.712 3.712 0 01-3.71 3.71 3.712 3.712 0 01-3.71-3.71 3.712 3.712 0 013.71-3.71 3.712 3.712 0 013.71 3.71zM26 88.739c-.95 0-1.9-.364-2.627-1.083a3.712 3.712 0 010-5.246l7.42-7.42a3.71 3.71 0 015.246 0 3.712 3.712 0 010 5.245l-7.42 7.42a3.696 3.696 0 01-2.626 1.084H26zm7.42 14.84c-.95 0-1.9-.363-2.627-1.083a3.712 3.712 0 010-5.246l22.261-22.26a3.71 3.71 0 015.246 0 3.712 3.712 0 010 5.245l-22.26 22.261a3.696 3.696 0 01-2.627 1.083h.007zm22.261 0c-.95 0-1.9-.363-2.627-1.083a3.712 3.712 0 010-5.246l7.42-7.42a3.71 3.71 0 015.246 0 3.712 3.712 0 010 5.246l-7.42 7.42a3.696 3.696 0 01-2.626 1.083h.007z"/></svg>