<svg width="128" height="128" xmlns="http://www.w3.org/2000/svg"><path d="M45.878 18.545c.038.05.05.16.05.347v21.816c0 .187.031.297-.01.346H10.2c-.04-.05-.286-.16-.286-.346V18.892c0-.187.245-.297.286-.347h35.728m.093-4.501H10.098c-2.487 0-4.686 2.17-4.686 4.848v21.816c0 2.678 2.199 4.848 4.686 4.848H46.02c2.487 0 4.41-2.17 4.41-4.848V18.892c0-2.678-1.97-4.848-4.455-4.848h.045zm58.523 72.028a4.506 4.506 0 014.501 4.502 4.506 4.506 0 01-4.501 4.502 4.506 4.506 0 01-4.502-4.502 4.506 4.506 0 014.502-4.502m0-4.502a9.004 9.004 0 100 18.008 9.004 9.004 0 000-18.008zm-74.28 4.502a4.506 4.506 0 014.502 4.502 4.506 4.506 0 01-4.502 4.502 4.506 4.506 0 01-4.501-4.502 4.506 4.506 0 014.501-4.502m0-4.502a9.004 9.004 0 10.001 18.008 9.004 9.004 0 000-18.008zm76.438-45.017V29.8c2.25-8.803-2.25-13.505-11.254-13.505-3.435 0-15.326 2.037-20.258 4.501-4.502 2.251-4.502 4.502-2.251 6.753.03 0 .058.005.088.005 1.27-1.272 3.3-2.53 6.415-3.397-.108-.038 10.05-3.203 16.006-3.36 3.41-.09 5.951.81 6.969 2.221 1.017 1.412.57 3.694.013 5.36a4.55 4.55 0 00-.23 1.422l-.002 6.753c0 .574.11 1.141.322 1.672 1.16 2.897 3.007 7.075 5.146 11.914 5.535 12.508 14.792 33.446 14.792 39.686 0 10.55-8.582 19.132-19.132 19.132-7.475 0-14.31-4.412-17.41-11.24a4.505 4.505 0 00-4.1-2.641h-31.26a4.506 4.506 0 00-4.099 2.64c-3.101 6.83-9.935 11.241-17.41 11.241-10.55 0-19.133-8.583-19.133-19.132 0-1.056.104-2.155.318-3.356a4.505 4.505 0 00-.655-3.233 25.78 25.78 0 01-4.164-14.045c0-6.543 1.656-11.676 2.914-14.63h37.525c-3.998 3.68-5.62 10.33-3.97 17.324 2.056 8.716 8.217 14.345 15.692 14.345a16 16 0 002.6-.218c18.538-3.09 30.873-16.344 32.996-35.456.934-8.403-1.1-15.878-5.729-21.048-.308-.344-.65-.642-.977-.959-1.708-1.544-7.054-.513-5.07 1.59 5.23 3.605 8.32 10.747 7.3 19.92-2.25 20.257-15.755 29.26-29.26 31.511-.64.106-1.26.158-1.86.158-12.044 0-15.722-20.63-7.144-24.917v-6.753H5.504C3.114 54.4.91 61.312.91 69.191a30.231 30.231 0 004.886 16.492 23.678 23.678 0 00-.385 4.141c0 13.053 10.582 23.635 23.635 23.635 9.57 0 17.793-5.7 21.51-13.882h31.26c3.716 8.18 11.938 13.882 21.509 13.882 13.053 0 23.634-10.582 23.634-23.635 0-9.595-15.756-42.017-20.258-53.271zM45.148 18.972c-.185-.437-.066-.13-.066.037V40.376c0 .119.02.46.022.454l.814-.62H10.2l.598.247c-.557-.44-.039.528-.039.133v-.478-1.8-5.936-12.155-.997-.257c0-.261-.513.612.039.176l-.598.247H45.927c1.09 0 1.09-1.69 0-1.69H10.87c-.866 0-1.802.147-1.802 1.287v21.074c0 .901.215 1.838 1.315 1.838h35.535c.38 0 .71-.258.815-.62.09-.311.04-.738.04-1.071v-1.716-5.843-12.282c0-.707.115-1.586-.166-2.248-.18-.425-.797-.514-1.156-.304-.435.256-.483.733-.303 1.157zm.872-5.773H14.428c-2.374 0-5.335-.432-7.39.984-1.778 1.225-2.471 3.181-2.471 5.256v21.128c0 2.664 1.747 5.06 4.368 5.7.795.195 1.663.134 2.476.134h33.567c1.063 0 2.079.01 3.084-.441 2.189-.985 3.213-3.246 3.213-5.547v-3.965-13.182-4.042c0-2.274-.976-4.457-3.088-5.51-.69-.344-1.445-.498-2.212-.515v1.69h.045c1.09 0 1.09-1.69 0-1.69h-.045c-1.092 0-1.088 1.666 0 1.69 2.372.053 3.61 2.176 3.61 4.335v21.189c0 2.098-1.218 4.298-3.566 4.298H10.808c-1.39 0-2.584-.284-3.581-1.38-1.027-1.13-.97-2.55-.97-3.952v-5.263-12.828c0-.93-.042-1.873.017-2.803.133-2.12 2.069-3.596 4.08-3.596H46.02c1.09 0 1.09-1.69 0-1.69zm58.523 73.718a3.706 3.706 0 013.656 3.657c.044 2.025-1.696 3.615-3.656 3.657-2.026.043-3.615-1.697-3.657-3.657-.043-2.025 1.697-3.615 3.657-3.657 1.088-.023 1.09-1.713 0-1.69a5.43 5.43 0 00-5.347 5.347c-.064 2.953 2.488 5.286 5.347 5.347 2.953.063 5.285-2.489 5.346-5.347.064-2.953-2.488-5.286-5.346-5.347-1.091-.023-1.089 1.667 0 1.69zm0-6.192c-3.264.035-6.208 1.613-8.104 4.255-1.884 2.626-2.232 6.21-1.061 9.193 1.164 2.966 3.74 5.191 6.823 5.969 3.176.801 6.543-.138 8.971-2.287 3.02-2.671 3.995-7.16 2.535-10.88-1.475-3.758-5.15-6.207-9.164-6.25-1.09-.012-1.09 1.679 0 1.69 3.189.035 5.99 1.846 7.393 4.698 1.395 2.834.835 6.378-1.185 8.757-2.07 2.44-5.407 3.387-8.468 2.545-3.037-.835-5.23-3.461-5.795-6.51-.914-4.935 3.174-9.437 8.054-9.49 1.09-.011 1.09-1.702 0-1.69zm-74.28 6.192a3.706 3.706 0 013.657 3.657c.043 2.025-1.696 3.615-3.657 3.657-2.025.043-3.615-1.697-3.656-3.657-.044-2.025 1.696-3.615 3.656-3.657 1.089-.023 1.09-1.713 0-1.69a5.43 5.43 0 00-5.347 5.347c-.063 2.953 2.489 5.286 5.347 5.347 2.953.063 5.286-2.489 5.347-5.347.063-2.953-2.488-5.286-5.347-5.347-1.09-.023-1.088 1.667 0 1.69zm0-6.192c-3.263.035-6.208 1.613-8.103 4.255-1.884 2.626-2.232 6.21-1.061 9.193 1.164 2.966 3.74 5.191 6.822 5.969 3.177.801 6.543-.138 8.972-2.287 3.02-2.671 3.995-7.16 2.535-10.88-1.475-3.758-5.15-6.207-9.165-6.25-1.09-.012-1.089 1.679 0 1.69 3.19.035 5.99 1.846 7.394 4.698 1.395 2.834.835 6.378-1.185 8.757-2.071 2.44-5.407 3.387-8.468 2.545-3.037-.835-5.23-3.461-5.795-6.51-.914-4.935 3.174-9.437 8.054-9.49 1.09-.011 1.09-1.702 0-1.69zm77.283-44.172v-5.247c0-.758.005-1.389.152-2.053.319-1.437.482-2.925.397-4.396-.14-2.439-1.084-4.77-2.911-6.426-1.99-1.803-4.655-2.55-7.264-2.851-2.41-.279-4.781-.009-7.17.334a88.578 88.578 0 00-8.984 1.774c-3.828.963-14.61 3.957-10.09 9.709.383.487.86 1.168 1.574.972.556-.153 1.11-.899 1.588-1.237 1.452-1.027 3.127-1.676 4.827-2.16a.854.854 0 00.59-1.04v-.001l-.389.954c.021-.015-.27.104-.077.035.09-.032.182-.062.274-.092a44.13 44.13 0 011.06-.328c1.137-.34 2.281-.652 3.429-.95 2.976-.771 6.005-1.461 9.066-1.784 1.676-.177 3.382-.21 5.039.137 1.192.25 2.796.78 3.303 2.02.708 1.728-.321 3.478-.55 5.17-.098.729-.056 1.48-.057 2.213l-.001 5.247c0 1.679.925 3.314 1.567 4.827.749 1.767 1.52 3.524 2.292 5.28 2.762 6.281 5.567 12.543 8.23 18.867 2.453 5.827 4.881 11.703 6.76 17.745.593 1.903 1.216 3.99 1.381 5.892.246 2.83-.493 5.85-1.686 8.4-2.65 5.664-8.198 9.694-14.412 10.427-6.77.798-13.538-2.362-17.34-8.001-.943-1.399-1.45-3.132-2.676-4.315-.969-.935-2.336-1.445-3.674-1.445H51.181c-1.73 0-3.317.419-4.556 1.724-.576.606-.89 1.349-1.259 2.084a19.112 19.112 0 01-1.37 2.289c-.953 1.381-2.133 2.602-3.422 3.673-2.58 2.143-5.783 3.466-9.087 3.954-6.36.937-12.788-1.846-16.785-6.789-1.96-2.424-3.2-5.386-3.72-8.447a17.445 17.445 0 01-.06-5.266c.138-1 .278-1.88.102-2.887-.183-1.047-.836-1.91-1.363-2.802-4.14-7.025-4.12-15.49-1.889-23.145.359-1.232.783-2.45 1.284-3.632l-.73.419H45.85l-.597-1.443c-5.417 5.069-5.772 13.55-3.607 20.21 1.932 5.938 6.405 11.174 12.686 12.556 3.372.743 6.786.094 10.074-.753a42.325 42.325 0 008.71-3.307c5.296-2.709 9.86-6.68 13.343-11.493 3.635-5.024 5.921-10.95 7.034-17.027 1.315-7.177 1.001-14.78-2.615-21.274a21.337 21.337 0 00-2.997-4.133c-.987-1.06-1.974-1.617-3.418-1.758-1.723-.168-5.531.806-4.039 3.284.34.562.953.878 1.448 1.287.574.473 1.105.998 1.604 1.548.998 1.1 1.797 2.364 2.46 3.688 1.536 3.067 2.105 6.553 2.106 9.955.001 3.729-.7 7.504-1.776 11.066a34.093 34.093 0 01-4.019 8.697c-3.08 4.75-7.492 8.466-12.553 10.958-2.396 1.18-4.938 2.051-7.53 2.686-2.596.635-5.21 1.093-7.785.156-4.13-1.5-6.472-5.947-7.373-9.991-.954-4.282-.592-10.511 3.85-12.777.26-.133.418-.445.418-.73v-6.752a.853.853 0 00-.845-.845H5.504a.845.845 0 00-.73.418C1.872 54.944.437 61.051.118 67.067c-.357 6.73 1.299 13.36 4.949 19.042l-.085-.651c-1.16 6.716.386 13.614 4.503 19.076 3.78 5.017 9.43 8.45 15.636 9.451 5.307.857 10.775-.075 15.515-2.603 4.669-2.49 8.445-6.58 10.649-11.378l-.73.418H81.815l-.73-.418c2.795 6.082 8.015 10.778 14.324 12.986 6.263 2.191 13.308 1.58 19.187-1.431 5.558-2.848 9.812-7.885 11.876-13.754.952-2.707 1.478-5.737 1.312-8.61-.103-1.77-.513-3.525-.963-5.233-1.312-4.973-3.195-9.803-5.103-14.572-2.23-5.575-4.618-11.086-7.034-16.583-2.41-5.48-4.94-10.92-7.168-16.479-.4-.998-2.035-.563-1.63.45 1.671 4.17 3.532 8.265 5.349 12.373 2.383 5.39 4.761 10.782 7.028 16.222 2.133 5.119 4.205 10.28 5.902 15.563.64 1.99 1.225 4.005 1.627 6.058.386 1.972.397 4.014.093 6.116-.891 6.16-4.369 11.775-9.45 15.36-5.32 3.756-12.114 5.015-18.441 3.515-6.836-1.62-12.53-6.482-15.45-12.834-.12-.263-.454-.419-.729-.419h-31.26c-.275 0-.61.156-.73.419-2.787 6.068-8.047 10.696-14.468 12.575-6.284 1.84-13.155.767-18.655-2.74-5.248-3.348-8.869-8.842-10.056-14.928-.323-1.653-.428-3.344-.375-5.026.034-1.049.162-2.091.34-3.125.087-.504-.206-.835-.458-1.241a30.692 30.692 0 01-.82-1.413C3.417 79.766 2.248 75.87 1.877 71.91c-.375-4.006.044-8.115.919-12.031.728-3.257 1.836-6.461 3.438-9.394l-.73.418H50.43l-.845-.845v6.753l.418-.73c-3.826 1.952-5.123 6.547-5.103 10.548.023 4.525 1.636 9.299 4.831 12.57 1.545 1.581 3.538 2.727 5.711 3.164 2.797.562 5.71-.161 8.411-.902 5.309-1.457 10.293-4.05 14.406-7.722 4.623-4.125 7.826-9.586 9.639-15.478 2.089-6.79 2.832-14.623-.03-21.297-1.183-2.755-2.982-5.224-5.367-7.056-.196-.151-.474-.29-.616-.494-.09-.128-.07-.204-.084-.14-.016.073.033-.066.1-.115.189-.14.401-.226.622-.299.927-.304 2.143-.338 3.036.095.612.296 1.114.95 1.551 1.454.574.66 1.089 1.366 1.57 2.097a22.172 22.172 0 012.289 4.608c1.282 3.523 1.696 7.292 1.544 11.022-.503 12.405-6.603 24.499-17.137 31.283-2.546 1.64-5.294 2.945-8.15 3.94-3.151 1.1-6.658 2.083-10.015 2.022-6.341-.117-11.272-4.835-13.51-10.482-2.493-6.29-2.523-14.809 2.748-19.741.546-.51.122-1.443-.597-1.443H8.326c-.268 0-.618.155-.73.419-2.79 6.59-3.941 14.288-2.284 21.31.463 1.962 1.187 3.86 2.077 5.666.433.88.928 1.728 1.457 2.553.627.977.664 1.976.485 3.09a19.786 19.786 0 001.01 10.083c2.22 5.92 7.243 10.488 13.308 12.226 6.542 1.874 13.668.09 18.73-4.39 1.266-1.12 2.363-2.43 3.307-3.83.46-.682.865-1.4 1.233-2.136.396-.791.73-1.53 1.464-2.074 1.01-.748 2.13-.711 3.3-.711h28.574c.828 0 1.712-.074 2.52.129 1.816.454 2.346 2.11 3.157 3.57.824 1.483 1.871 2.85 3.042 4.075 2.324 2.433 5.294 4.21 8.493 5.222 6.309 1.995 13.25.522 18.392-3.554 4.696-3.724 7.785-9.98 7.425-16.025-.12-2.013-.701-4.012-1.276-5.933-.829-2.767-1.82-5.484-2.847-8.183-2.41-6.336-5.089-12.57-7.804-18.78-1.344-3.075-2.707-6.142-4.061-9.212a666.258 666.258 0 01-2.422-5.54c-.636-1.477-1.498-3.045-1.804-4.63-.13-.671-.03-1.458-.03-2.134l.002-3.375c0-.664-.011-1.329.007-1.992.023-.857.45-1.723.623-2.56.186-.901.268-1.85.11-2.76-.594-3.433-4.674-4.22-7.585-4.291-3.107-.076-6.275.61-9.289 1.29a98.652 98.652 0 00-5.435 1.399c-.559.16-1.116.325-1.67.5-.232.073-.594.141-.791.29-.307.229-.5.557-.389.954v.001l.59-1.04c-2.48.706-4.927 1.782-6.787 3.614l.598-.247-.088-.004.597.247c-.743-.757-1.483-1.696-1.113-2.804.457-1.367 2.368-2.236 3.546-2.791 2.537-1.196 5.368-1.858 8.089-2.48 2.829-.647 5.697-1.177 8.58-1.522 2.432-.291 4.874-.309 7.27.274 1.968.478 3.902 1.447 5.11 3.122 1.277 1.77 1.531 3.973 1.359 6.093-.054.66-.17 1.313-.307 1.96-.08.374-.213.744-.213 1.13v6.619c0 1.09 1.69 1.09 1.69 0z"/></svg>