<svg width="128" height="128" xmlns="http://www.w3.org/2000/svg"><g><path d="M123.489 118.477l-5.6-18.64a33.04 33.04 0 00-23.36-22.959l-1.6-.48h-.64a6.24 6.24 0 00-5.84 1.76 29.68 29.68 0 01-22.16 11.68 30.24 30.24 0 01-22.399-11.6 6 6 0 00-6-1.84h-.64l-1.52.48a33.04 33.04 0 00-23.44 23.04l-5.919 18.72a7.44 7.44 0 001.28 6.48 7.28 7.28 0 006 2.88h104.718a7.44 7.44 0 005.92-3.12 7.28 7.28 0 001.2-6.4zm-7.2 2.16a2.4 2.4 0 01-1.92.96H13.57a2.08 2.08 0 01-1.76-.8 2.48 2.48 0 01-.48-2.08l5.44-17.36a27.04 27.04 0 0119.6-18.239l1.36-.4h.48a1.36 1.36 0 011.12 0 33.76 33.76 0 0024.639 12.48 33.28 33.28 0 0024.8-12.32 1.44 1.44 0 011.2 0h.48l1.44.4a26.8 26.8 0 0119.279 18.24l5.2 17.12a2.16 2.16 0 010 2h-.08z"/><path d="M16.13 65.919l3.44.88c9.46 2.317 19.091 3.869 28.8 4.64a22.72 22.72 0 0016 7.2 22.48 22.48 0 0016-7.28 189.436 189.436 0 0027.999-4.56l3.44-.88a5.36 5.36 0 003.2-2.96 4.88 4.88 0 000-4.32l-9.28-16a91.278 91.278 0 01-7.6-17.2L96.77 24A33.28 33.28 0 0074.29 1.84l-1.52-.56a33.92 33.92 0 00-18.319 0l-1.36.48A33.04 33.04 0 0030.53 24l-.56 2.08a83.998 83.998 0 01-8 17.12l-9.2 15.999a5.04 5.04 0 000 4.56 4.56 4.56 0 003.36 2.16zm48 6.72c-11.12 0-20.96-13.6-22-29.76 17.36 3.36 26.24-3.68 29.6-9.04a14.88 14.88 0 0014.4 4.72V40c0 17.36-10.32 32.64-22 32.64zm-35.76-27.52a78.078 78.078 0 007.52-17.12l.48-2.24A24 24 0 0154.29 8.88l1.28-.48a34.08 34.08 0 0116.56 0l1.52.48a23.52 23.52 0 0116.88 16.64l.88 2.88a84.478 84.478 0 007.44 16.72l8.799 14.72-3.36.8a156.637 156.637 0 01-20.64 3.68 45.679 45.679 0 007.52-25.44 29.84 29.84 0 000-4.72 2.72 2.72 0 00-1.12-1.68 2.64 2.64 0 00-1.92 0 10.88 10.88 0 01-13.92-4.88 2.48 2.48 0 00-2.24-1.12 2.24 2.24 0 00-2.24 1.28c-2.56 4.24-9.84 14-29.839 9.04a2.48 2.48 0 00-2.08.48 2.24 2.24 0 00-.88 1.84 46.879 46.879 0 007.44 25.36 174.316 174.316 0 01-21.44-3.68l-3.28-.88 8.72-14.8z"/></g></svg>